inDegrees=no
num_controls=7
num_derivatives=13
num_iterations=103
num_multipliers=7
num_parameters=0
num_slacks=7
num_states=26
objective=5.219835
objective_accelerations=0.381807
objective_balance=0.028757
objective_effort=0.178291
objective_height=4.562658
objective_ligament=0.068322
solver_duration=1154.774408
status=Solve_Succeeded
success=true
DataType=double
version=3
OpenSimVersion=4.4-2022-07-23-0e9fedc
endheader
time	/jointset/ground_pelvis/pelvis_tilt/value	/jointset/ground_pelvis/pelvis_tx/value	/jointset/ground_pelvis/pelvis_ty/value	/jointset/hip_l/hip_flexion_l/value	/jointset/hip_l/hip_adduction_l/value	/jointset/hip_l/hip_rotation_l/value	/jointset/back/lumbar_extension/value	/jointset/patellofemoral_l/patellar_flexion_l/value	/jointset/knee_l/knee_flexion_l/value	/jointset/knee_l/knee_adduction_l/value	/jointset/knee_l/knee_rotation_l/value	/jointset/ankle_l/ankle_angle_l/value	/jointset/subtalar_l/subtalar_angle_l/value	/jointset/ground_pelvis/pelvis_tilt/speed	/jointset/ground_pelvis/pelvis_tx/speed	/jointset/ground_pelvis/pelvis_ty/speed	/jointset/hip_l/hip_flexion_l/speed	/jointset/hip_l/hip_adduction_l/speed	/jointset/hip_l/hip_rotation_l/speed	/jointset/back/lumbar_extension/speed	/jointset/patellofemoral_l/patellar_flexion_l/speed	/jointset/knee_l/knee_flexion_l/speed	/jointset/knee_l/knee_adduction_l/speed	/jointset/knee_l/knee_rotation_l/speed	/jointset/ankle_l/ankle_angle_l/speed	/jointset/subtalar_l/subtalar_angle_l/speed	/forceset/tau_hip_flexion_l	/forceset/tau_hip_adduction_l	/forceset/tau_hip_rotation_l	/forceset/tau_knee_flexion_l	/forceset/tau_ankle_angle_l	/forceset/tau_subtalar_angle_l	/forceset/tau_lumbar_extension	lambda_cid13_p0	lambda_cid13_p1	lambda_cid13_p2	lambda_cid13_p3	lambda_cid13_p4	lambda_cid13_p5	lambda_cid14_p0	/jointset/ground_pelvis/pelvis_tilt/accel	/jointset/ground_pelvis/pelvis_tx/accel	/jointset/ground_pelvis/pelvis_ty/accel	/jointset/hip_l/hip_flexion_l/accel	/jointset/hip_l/hip_adduction_l/accel	/jointset/hip_l/hip_rotation_l/accel	/jointset/back/lumbar_extension/accel	/jointset/patellofemoral_l/patellar_flexion_l/accel	/jointset/knee_l/knee_flexion_l/accel	/jointset/knee_l/knee_adduction_l/accel	/jointset/knee_l/knee_rotation_l/accel	/jointset/ankle_l/ankle_angle_l/accel	/jointset/subtalar_l/subtalar_angle_l/accel	gamma_cid13_p0	gamma_cid13_p1	gamma_cid13_p2	gamma_cid13_p3	gamma_cid13_p4	gamma_cid13_p5	gamma_cid14_p0
1	-0.2094781092202205	0.07115379131123638	0.7091431680194797	1.026160088353339	-0.5027530702417113	-0.07337876137310978	-0.2617833507939912	1.168925838786093	1.168925838786087	-0.1618801139726175	-0.1745228702784868	0.4362752209626016	0.08733159091020808	-0.01584510831239168	0.01020044269924041	-0.0004975315645304662	0.0004645423497649538	-0.002834134992667952	-2.119042171177e-05	-7.874437801337177e-05	0.0008316247716180403	0.0008316247716184237	-0.003256785195965413	2.849114329633059e-05	0.01527704755620904	0.007639987512445488	-0.1351096226689258	0.08052400249001951	-0.00985836648502208	-0.3129387131102146	-0.09594829515415731	0.01964464540389721	0.1527331890943764	-67.65712919500778	1.990394169762076	0.8593251039638616	14.62571795754246	-601.0518765197395	-58.62065210419333	-9.399158023744459	0.6324635726699483	-0.07154394034544116	1.147546442736915	-3.499659183334774	0.3933591571749884	-2.071192354233574	-0.01936009215641453	-4.293088801949904	-4.2930888019499	0.0007883449195811481	-0.004816862316984422	-1.919750914664035	-0.854536189141025	2.311658815309739e-09	1.203120528934466e-08	-7.040964064508023e-09	2.292174590441753e-09	4.577225276384252e-10	2.016114734451468e-08	6.788066589196195e-10
1.01	-0.2096055654473336	0.07125221168719917	0.7091954193857256	1.025990839449359	-0.5027613972326112	-0.07348334283163065	-0.2617844317284299	1.16872000278422	1.168720002784209	-0.1619109816361752	-0.1745225565139946	0.4363322633972484	0.08736606275893462	-0.009648228225167407	0.00948495631128759	0.0109434789875484	-0.03430413355946027	0.001168765904843301	-0.02088718984549852	-0.0001385562906070328	-0.04198810179617594	-0.04198810179617762	-0.002918834539115363	3.41407527261481e-05	-0.003864359924666325	-0.0007421345863448466	-0.1350480885855919	0.08050999807168768	-0.009858783515347674	-0.3127719370886279	-0.09594975702925043	0.01965153976243246	0.1526726373507968	-67.64275443508005	1.979247742331594	0.8675393685720343	14.5480356221178	-600.8639610936643	-58.61650554920615	-9.408233842366817	0.6129862716374567	-0.07135173605735205	1.141728322299954	-3.463943773478888	0.4037576614536134	-2.09311958865221	0.0005411924460364259	-4.274805312053795	-4.274805312054134	0.04998497187075313	0.003242207871222507	-1.910705348460293	-0.8295309375531773	-2.161206342922341e-09	5.448790041953981e-09	1.95772238018874e-08	3.387124142915731e-09	-5.763305569570814e-09	1.287778954895074e-08	-3.802576088662815e-09
1.02	-0.2096711156645997	0.07134351704967476	0.7093619508496638	1.025474209390501	-0.5027296947934551	-0.07379634745481398	-0.2617861441951811	1.168086291371091	1.168086291371097	-0.161938532483979	-0.1745221889863413	0.4361980178208479	0.08731681724321309	-0.003463906342394882	0.008777440001799483	0.02235848797394123	-0.06901168861919212	0.005171751018916306	-0.04170582335732204	-0.0002050508728975628	-0.08474345747835609	-0.0847434574783599	-0.002593422050137367	3.924377409642762e-05	-0.02298055475198095	-0.009103485377334578	-0.1349865545025155	0.08049599365339917	-0.009859200545483756	-0.3126051610670618	-0.09595121890430254	0.01965843412107024	0.1526120856069553	-67.63719566620948	1.967314227258652	0.8785406182064378	14.50012366881334	-600.8060848760123	-58.61438660546265	-9.43544669836715	0.6299519317797639	-0.06994992465263127	1.142346129599711	-3.48743501343604	0.3933760004874193	-2.061719171840844	-0.02069662609478724	-4.280214624827147	-4.280214624827154	-0.001719288654768118	-0.004926179928759654	-1.91470838395207	-0.8503819275809179	-6.693742429000116e-09	-2.713970926266717e-09	4.546519439760172e-08	3.814329036540102e-09	-1.175743551420582e-08	4.273027818899434e-09	-8.283100615634899e-09
1.03	-0.209674873668192	0.07142778838946351	0.7096424524173786	1.024610875307999	-0.5026579722512233	-0.07431726458592366	-0.2617885307481521	1.167025430675359	1.167025430675395	-0.161962909886166	-0.1745218357497682	0.4358727474986443	0.08718408554216228	0.002711141542388898	0.008078270281645303	0.0337324847945003	-0.1036379602798675	0.009172052046323211	-0.06246802627370118	-0.0002706622309379343	-0.1274095071462602	-0.1274095071462597	-0.00228357417000762	2.461192762070365e-05	-0.04206804619622941	-0.0174364573380257	-0.1348754672630289	0.0804850617204891	-0.009869482038413296	-0.312135768042869	-0.09595613854844069	0.01967553640186055	0.1525092996870331	-67.61488685803738	1.940497497425581	0.9005017240467286	14.44220842798003	-600.4773481368364	-58.59739176782085	-9.480770928198821	0.6111058308018176	-0.06968329749712929	1.133521755956409	-3.447649206242811	0.4032421936720843	-2.082043759360285	0.0007462344595811264	-4.256921379743705	-4.25692137974304	0.04710645572359241	-0.0007366107917734688	-1.904950767736963	-0.8238019008462611	-1.122688740209672e-08	-1.089285787123059e-08	7.134571379667643e-08	4.2347202091558e-09	-1.774925017156967e-08	-4.345217624769095e-09	-1.276361638525382e-08
